# xmcd
#
# Track frame offsets: 
#        225
#        13104
#        25221
#        38162
#        49481
#        62558
#        74162
#        88450
#        100175
#        112017
#        121487
#        134640
#        146026
#        160866
#        174843
#        189376
#
# Disc length: 2615 seconds
#
# Revision: 0
# Processed by: cddbd v1.4PL0 Copyright (c) Steve Scherf et al.
# Submitted via: ExactAudioCopy v0.90b4
#
DISCID=f10a3410
DTITLE=Four wheel drive - No doubt about it
DYEAR=1900
DGENRE=Bluegrass
TTITLE0=Lonesome without you
TTITLE1=No doubt about it
TTITLE2=Indian killed a woodcok
TTITLE3=Four wheel drive
TTITLE4=Wild and wicked world
TTITLE5=One tear
TTITLE6=Send me your address
TTITLE7=Anita's waltz
TTITLE8=Wreck f the old 97
TTITLE9=I'm lost and I'll never find the way
TTITLE10=Hot corn, cold corn
TTITLE11=Daley's reel
TTITLE12=Occasional blues
TTITLE13=How many men?
TTITLE14=Bad moon rising
TTITLE15=Yakety Axe
EXTD=
EXTT0=
EXTT1=
EXTT2=
EXTT3=
EXTT4=
EXTT5=
EXTT6=
EXTT7=
EXTT8=
EXTT9=
EXTT10=
EXTT11=
EXTT12=
EXTT13=
EXTT14=
EXTT15=
PLAYORDER=
